<svg width="300" height="100" viewBox="0 0 300 100" fill="none" xmlns="http://www.w3.org/2000/svg">
<path d="M145.911 30.0703C152.973 23.3506 164.421 23.3508 171.483 30.0703C178.546 36.7901 178.546 47.683 171.493 54.4072C165.95 59.6819 157.71 60.8156 151.004 57.8125L148.166 60.499C146.994 61.6145 145.916 61.9579 144.26 61.9805C143.344 61.994 142.286 62.2874 141.73 62.9961C141.094 63.809 140.677 64.726 140.919 65.8369C141.076 66.5503 140.985 67.4036 140.174 68.1396L139.97 68.334C139.372 68.8984 138.498 69.0527 137.696 68.8135C136.733 68.529 135.797 68.637 135.199 69.2061C134.692 69.6893 134.531 70.403 134.678 71.166C134.91 72.3943 134.383 73.6452 133.453 74.5303L131.963 75.9482C131.118 76.7521 129.955 77.1904 128.754 77.1543L123.531 76.7812C123.531 76.7812 124.468 74.5304 123.083 73.4062L122.784 69.2148C122.764 68.6505 122.865 68.0877 123.083 67.5625C123.301 67.0374 123.631 66.5607 124.051 66.1621L142.11 49.0869C139.244 42.7962 140.505 35.214 145.911 30.0703ZM166.943 34.5293C163.11 30.6964 156.896 30.6964 153.063 34.5293C149.231 38.3622 149.231 44.5763 153.063 48.4092C156.896 52.242 163.11 52.242 166.943 48.4092C170.776 44.5763 170.776 38.3622 166.943 34.5293Z" fill="#0E688E"/>
<path d="M151.506 33.0556C155.339 29.2228 161.554 29.2222 165.387 33.0549C169.22 36.8878 169.22 43.1031 165.387 46.936C161.554 50.7687 155.339 50.7682 151.506 46.9353C147.674 43.1025 147.674 36.8885 151.506 33.0556ZM158.017 34.8731C157.165 35.7249 156.925 36.743 157.036 37.7982C156.034 37.4778 155.198 37.6913 154.451 38.4383C153.77 39.1198 153.544 39.9683 153.825 41.0617L152.982 40.1412L151.16 41.9628L156.814 47.6169L158.636 45.7953L155.601 42.7604C154.836 41.9954 154.814 41.3171 155.509 40.6225C156.203 39.9279 156.764 40.0944 157.425 40.7558L160.55 43.8811L162.359 42.0726L159.324 39.0377C158.559 38.2728 158.51 37.6206 159.218 36.9129C159.913 36.2187 160.486 36.3726 161.147 37.0338L164.285 40.1716L166.081 38.3755L162.8 35.0948C161.244 33.539 159.458 33.4315 158.017 34.8731Z" fill="#0E688E"/>
<path d="M145.417 27.262C152.392 20.2874 163.698 20.2873 170.673 27.262C177.648 34.237 177.649 45.544 170.683 52.5237C165.208 57.9986 157.07 59.175 150.447 56.0579L147.644 58.8469C146.486 60.0047 145.422 60.3606 143.786 60.384C142.881 60.3982 141.836 60.703 141.288 61.4387C140.66 62.2824 140.247 63.234 140.486 64.387C140.64 65.1274 140.552 66.0136 139.75 66.7776L139.548 66.9797C138.958 67.5655 138.095 67.7251 137.303 67.4768C136.352 67.1815 135.428 67.2935 134.837 67.884C134.336 68.3855 134.177 69.1262 134.322 69.9182C134.551 71.1931 134.031 72.4917 133.113 73.4104L131.641 74.8831C130.807 75.7174 129.658 76.1715 128.472 76.134L123.832 75.7776C123.831 75.7461 123.789 73.9687 122.782 73.4016L122.575 67.8938C122.554 67.308 122.655 66.7241 122.871 66.179C123.086 65.6338 123.412 65.1387 123.827 64.7249L141.663 47.0012C138.831 40.4716 140.078 32.601 145.417 27.262ZM166.362 32.0667C162.481 28.186 156.189 28.1859 152.308 32.0667C148.427 35.9474 148.427 42.2395 152.308 46.1204C156.189 50.0012 162.481 50.0012 166.362 46.1204C170.243 42.2395 170.243 35.9475 166.362 32.0667Z" fill="#00A3E0"/>
<path d="M151.558 32.0668C155.439 28.1859 161.731 28.1859 165.612 32.0668C169.493 35.9476 169.493 42.2397 165.612 46.1205C161.731 50.0013 155.439 50.0013 151.558 46.1205C147.677 42.2397 147.677 35.9476 151.558 32.0668ZM158.15 33.9077C157.287 34.7703 157.045 35.8009 157.158 36.8694C156.143 36.5449 155.297 36.7609 154.541 37.5171C153.85 38.2072 153.621 39.0664 153.906 40.1736L153.052 39.2414L151.208 41.0858L156.933 46.8103L158.777 44.9659L155.704 41.8931C154.93 41.1186 154.907 40.4321 155.61 39.7289C156.313 39.0257 156.88 39.1942 157.55 39.8636L160.715 43.0283L162.546 41.197L159.473 38.1241C158.699 37.3497 158.65 36.6896 159.366 35.9731C160.069 35.2699 160.649 35.4253 161.319 36.0946L164.497 39.2725L166.315 37.4543L162.993 34.1321C161.417 32.5568 159.61 32.448 158.15 33.9077Z" fill="#00A3E0"/>
<path d="M122.781 73.4016C122.781 73.4016 123.363 73.7954 123.831 75.7782L146.088 53.1516C146.814 52.3547 143.556 52.7672 142.581 53.7376L122.781 73.4016Z" fill="#1091C7"/>
<path d="M148.483 29.4938C146.655 30.4875 144.592 33.15 144.025 36.9938C143.51 40.4813 143.73 42.9047 144.902 44.9438C146.228 47.2453 148.033 46.0266 147.306 43.786C146.828 42.3094 146.706 41.7516 146.641 40.186C146.589 38.9625 146.716 37.7297 147.063 36.5578C147.925 33.6516 149.927 31.7438 150.513 30.8016C151.258 29.5969 150.081 28.6172 148.483 29.4938ZM135.649 57.525C134.317 58.6594 135.696 55.1297 136.717 53.9391C138.063 52.3641 141.25 49.0219 141.813 48.736C142.581 48.3469 142.535 50.4938 142.221 50.8875C141.105 52.2657 136.985 56.3907 135.649 57.525Z" fill="#BBE2F3"/>
</svg>
